<svg version="1.1" id="Layer_1" xmlns="http://www.w3.org/2000/svg" xmlns:xlink="http://www.w3.org/1999/xlink" x="0px" y="0px"
	 width="100%" viewBox="0 0 1100 1100" enable-background="new 0 0 1100 1100" xml:space="preserve">
<path fill="#FFFFFF" opacity="1.000000" stroke="none" 
	d="
M726.000000,1101.000000 
	C484.027374,1101.000000 242.554733,1101.000000 1.041046,1101.000000 
	C1.041046,734.402222 1.041046,367.804504 1.041046,1.103366 
	C367.556152,1.103366 734.112366,1.103366 1100.834229,1.103366 
	C1100.834229,367.666595 1100.834229,734.333313 1100.834229,1101.000000 
	C976.137390,1101.000000 851.318665,1101.000000 726.000000,1101.000000 
M1072.128906,815.165222 
	C1073.647339,815.082214 1075.165649,814.999207 1077.209839,814.887451 
	C1006.525635,717.129517 936.314636,620.026062 865.979553,522.750916 
	C930.993652,428.878571 995.911011,335.146057 1061.451538,240.513626 
	C1058.369995,240.513626 1056.575806,240.513626 1054.781616,240.513626 
	C1000.285461,240.513611 945.789246,240.561920 891.293457,240.414581 
	C887.278870,240.403732 885.072571,241.732422 882.920166,245.004807 
	C850.719788,293.961792 818.387085,342.831787 786.077759,391.717163 
	C785.041687,393.284760 783.923279,394.798004 782.653503,396.606842 
	C748.887207,345.648651 715.481140,295.292542 682.194946,244.857346 
	C680.164246,241.780457 678.177246,240.397491 674.287292,240.408463 
	C619.458252,240.563171 564.628723,240.513626 509.799286,240.513626 
	C508.199585,240.513626 506.599854,240.513626 503.741425,240.513626 
	C569.337830,335.225525 634.270020,428.978424 699.216187,522.751465 
	C628.791443,620.156189 558.571899,717.277161 487.944855,814.961609 
	C489.818085,815.079773 490.480286,815.158020 491.142456,815.158142 
	C547.305176,815.164429 603.467896,815.131226 659.630371,815.252136 
	C662.841370,815.259094 664.312012,813.800293 665.907104,811.496765 
	C702.021912,759.342224 738.186951,707.222473 774.346802,655.099121 
	C777.035217,651.223816 779.755798,647.370850 782.699524,643.167480 
	C784.031799,645.006348 785.023621,646.323120 785.961487,647.677246 
	C823.597046,702.020020 861.254272,756.347961 898.792114,810.758118 
	C900.995239,813.951538 903.228027,815.275879 907.218506,815.265076 
	C961.880920,815.117004 1016.543884,815.165222 1072.128906,815.165222 
M449.093719,574.595947 
	C462.738220,560.841187 473.216644,544.963318 481.164459,527.319885 
	C492.417084,502.339996 497.145081,475.941559 498.423157,448.806213 
	C500.075378,413.726532 497.064331,379.267365 484.032440,346.232391 
	C469.496704,309.385284 444.778229,281.722473 409.493317,263.585663 
	C376.912689,246.838898 341.992004,240.555695 305.715668,240.530609 
	C230.229477,240.478394 154.743225,240.514587 79.257011,240.514435 
	C77.486580,240.514435 75.716156,240.514435 73.772400,240.514435 
	C73.772400,432.339752 73.772400,623.537415 73.772400,814.883789 
	C121.583580,814.883789 169.133591,814.883789 217.167999,814.883789 
	C217.167999,751.886292 217.167999,689.168152 217.167999,626.164673 
	C219.458099,626.164673 221.265991,626.164612 223.073898,626.164612 
	C250.235611,626.164612 277.409058,626.645508 304.554596,625.982910 
	C320.642578,625.590210 336.848541,624.388733 352.717621,621.806702 
	C389.205719,615.869629 421.732819,601.135986 449.093719,574.595947 
z"/>
<path fill="#252530" opacity="1.000000" stroke="none" 
	d="
M1071.667725,815.165222 
	C1016.543884,815.165222 961.880920,815.117004 907.218506,815.265076 
	C903.228027,815.275879 900.995239,813.951538 898.792114,810.758118 
	C861.254272,756.347961 823.597046,702.020020 785.961487,647.677246 
	C785.023621,646.323120 784.031799,645.006348 782.699524,643.167480 
	C779.755798,647.370850 777.035217,651.223816 774.346802,655.099121 
	C738.186951,707.222473 702.021912,759.342224 665.907104,811.496765 
	C664.312012,813.800293 662.841370,815.259094 659.630371,815.252136 
	C603.467896,815.131226 547.305176,815.164429 491.142456,815.158142 
	C490.480286,815.158020 489.818085,815.079773 487.944855,814.961609 
	C558.571899,717.277161 628.791443,620.156189 699.216187,522.751465 
	C634.270020,428.978424 569.337830,335.225525 503.741425,240.513626 
	C506.599854,240.513626 508.199585,240.513626 509.799286,240.513626 
	C564.628723,240.513626 619.458252,240.563171 674.287292,240.408463 
	C678.177246,240.397491 680.164246,241.780457 682.194946,244.857346 
	C715.481140,295.292542 748.887207,345.648651 782.653503,396.606842 
	C783.923279,394.798004 785.041687,393.284760 786.077759,391.717163 
	C818.387085,342.831787 850.719788,293.961792 882.920166,245.004807 
	C885.072571,241.732422 887.278870,240.403732 891.293457,240.414581 
	C945.789246,240.561920 1000.285461,240.513611 1054.781616,240.513626 
	C1056.575806,240.513626 1058.369995,240.513626 1061.451538,240.513626 
	C995.911011,335.146057 930.993652,428.878571 865.979553,522.750916 
	C936.314636,620.026062 1006.525635,717.129517 1077.209839,814.887451 
	C1075.165649,814.999207 1073.647339,815.082214 1071.667725,815.165222 
z"/>
<path fill="#252530" opacity="1.000000" stroke="none" 
	d="
M448.827698,574.828979 
	C421.732819,601.135986 389.205719,615.869629 352.717621,621.806702 
	C336.848541,624.388733 320.642578,625.590210 304.554596,625.982910 
	C277.409058,626.645508 250.235611,626.164612 223.073898,626.164612 
	C221.265991,626.164612 219.458099,626.164673 217.167999,626.164673 
	C217.167999,689.168152 217.167999,751.886292 217.167999,814.883789 
	C169.133591,814.883789 121.583580,814.883789 73.772400,814.883789 
	C73.772400,623.537415 73.772400,432.339752 73.772400,240.514435 
	C75.716156,240.514435 77.486580,240.514435 79.257011,240.514435 
	C154.743225,240.514587 230.229477,240.478394 305.715668,240.530609 
	C341.992004,240.555695 376.912689,246.838898 409.493317,263.585663 
	C444.778229,281.722473 469.496704,309.385284 484.032440,346.232391 
	C497.064331,379.267365 500.075378,413.726532 498.423157,448.806213 
	C497.145081,475.941559 492.417084,502.339996 481.164459,527.319885 
	C473.216644,544.963318 462.738220,560.841187 448.827698,574.828979 
M346.249359,444.823334 
	C346.399048,438.506226 346.948547,432.168396 346.622162,425.876007 
	C345.706329,408.218628 340.547211,392.202667 327.283539,379.661346 
	C316.133026,369.118042 302.373871,363.826630 287.527435,363.038025 
	C265.596954,361.873108 243.583694,362.263519 221.605469,362.009613 
	C220.163788,361.992950 218.720352,362.129547 217.363434,362.191010 
	C217.363434,409.895447 217.363434,457.256439 217.363434,505.691681 
	C242.681473,504.800629 267.713715,505.089966 292.497498,502.748871 
	C322.957520,499.871643 343.920227,476.418365 346.249359,444.823334 
z"/>
<path fill="#FEFEFE" opacity="1.000000" stroke="none" 
	d="
M346.200134,445.273102 
	C343.920227,476.418365 322.957520,499.871643 292.497498,502.748871 
	C267.713715,505.089966 242.681473,504.800629 217.363434,505.691681 
	C217.363434,457.256439 217.363434,409.895447 217.363434,362.191010 
	C218.720352,362.129547 220.163788,361.992950 221.605469,362.009613 
	C243.583694,362.263519 265.596954,361.873108 287.527435,363.038025 
	C302.373871,363.826630 316.133026,369.118042 327.283539,379.661346 
	C340.547211,392.202667 345.706329,408.218628 346.622162,425.876007 
	C346.948547,432.168396 346.399048,438.506226 346.200134,445.273102 
z"/>
</svg>