<svg width="131" height="20" viewBox="0 0 131 20" fill="none" xmlns="http://www.w3.org/2000/svg">
<path d="M0.672852 19V1.5H11.0479V3.55H3.04785V8.9H9.72285V10.85H3.04785V19H0.672852ZM13.167 19V6H15.417V19H13.167ZM14.292 3.775C13.8587 3.775 13.4837 3.61667 13.167 3.3C12.867 2.98333 12.717 2.61667 12.717 2.2C12.717 1.71667 12.8587 1.33333 13.142 1.05C13.4253 0.766666 13.8087 0.625 14.292 0.625C14.7253 0.625 15.092 0.783333 15.392 1.1C15.7087 1.4 15.867 1.76667 15.867 2.2C15.867 2.66667 15.7253 3.05 15.442 3.35C15.1587 3.63333 14.7753 3.775 14.292 3.775ZM27.967 19.225L23.592 13.8L19.267 19.175L17.667 17.775L22.292 12.4L17.842 7.25L19.592 5.725L23.617 10.925L27.567 5.825L29.242 7.25L24.917 12.3L29.667 17.775L27.967 19.225ZM36.7508 19.3C34.8841 19.3 33.4008 18.7083 32.3008 17.525C31.2174 16.325 30.6758 14.65 30.6758 12.5C30.6758 11.2 30.9174 10.0417 31.4008 9.025C31.9008 7.99167 32.5924 7.18333 33.4758 6.6C34.3591 6 35.3841 5.7 36.5508 5.7C37.8008 5.7 38.8341 5.975 39.6508 6.525C40.4841 7.05833 41.1091 7.78333 41.5258 8.7C41.9424 9.61667 42.1508 10.625 42.1508 11.725C42.1508 12.3083 42.1258 12.875 42.0758 13.425H32.9758C33.1258 14.6417 33.5508 15.5917 34.2508 16.275C34.9508 16.9583 35.8758 17.3 37.0258 17.3C37.7758 17.3 38.4508 17.225 39.0508 17.075C39.6508 16.9083 40.2258 16.7 40.7758 16.45L41.3008 18.375C40.7008 18.6417 40.0258 18.8583 39.2758 19.025C38.5258 19.2083 37.6841 19.3 36.7508 19.3ZM32.9508 11.6H40.0758C40.0758 10.3333 39.7591 9.35833 39.1258 8.675C38.4924 7.99167 37.6174 7.65 36.5008 7.65C35.5341 7.65 34.7341 7.99167 34.1008 8.675C33.4674 9.34167 33.0841 10.3167 32.9508 11.6ZM50.0744 19.3C49.0077 19.3 48.0327 19.025 47.1494 18.475C46.2661 17.925 45.5661 17.15 45.0494 16.15C44.5327 15.1333 44.2744 13.9417 44.2744 12.575C44.2744 11.2583 44.5327 10.0833 45.0494 9.05C45.5827 8.01667 46.2827 7.2 47.1494 6.6C48.0327 6 48.9994 5.7 50.0494 5.7C50.9161 5.7 51.6577 5.875 52.2744 6.225C52.9077 6.575 53.3994 6.93333 53.7494 7.3V0.5H55.9994V15.85C55.9994 16.4833 56.1494 16.9 56.4494 17.1C56.7661 17.2833 57.1077 17.375 57.4744 17.375L56.9994 19.125C55.4161 19.125 54.4494 18.4917 54.0994 17.225C53.7327 17.7417 53.2161 18.2167 52.5494 18.65C51.8994 19.0833 51.0744 19.3 50.0744 19.3ZM50.5744 17.3C51.1911 17.3 51.7744 17.1583 52.3244 16.875C52.8911 16.575 53.3661 16.1917 53.7494 15.725V9.275C53.4327 8.875 52.9911 8.50833 52.4244 8.175C51.8577 7.825 51.2327 7.65 50.5494 7.65C49.7494 7.65 49.0494 7.86667 48.4494 8.3C47.8494 8.73333 47.3827 9.31667 47.0494 10.05C46.7327 10.7667 46.5744 11.5833 46.5744 12.5C46.5744 13.4167 46.7494 14.2417 47.0994 14.975C47.4494 15.6917 47.9244 16.2583 48.5244 16.675C49.1411 17.0917 49.8244 17.3 50.5744 17.3ZM78.4266 19.3L76.2516 14.55C75.7016 13.3667 75.0099 12.525 74.1766 12.025C73.3432 11.525 72.2766 11.275 70.9766 11.275H70.6016V19H68.2266V1.55C69.1099 1.46667 69.9516 1.40833 70.7516 1.375C71.5682 1.325 72.4349 1.3 73.3516 1.3C75.4849 1.3 77.0849 1.73333 78.1516 2.6C79.2349 3.46667 79.7766 4.58333 79.7766 5.95C79.7766 7.16667 79.4099 8.15 78.6766 8.9C77.9599 9.63333 76.9182 10.1833 75.5516 10.55C76.0016 10.75 76.4016 10.9917 76.7516 11.275C77.1016 11.5417 77.4349 11.9083 77.7516 12.375C78.0849 12.825 78.4182 13.4167 78.7516 14.15L80.6516 18.25L78.4266 19.3ZM70.6016 9.275H73.3516C74.5516 9.275 75.5266 9.00833 76.2766 8.475C77.0266 7.94167 77.4016 7.175 77.4016 6.175C77.4016 5.34167 77.0516 4.65833 76.3516 4.125C75.6516 3.575 74.6516 3.3 73.3516 3.3C72.7849 3.3 72.2766 3.30833 71.8266 3.325C71.3766 3.34167 70.9682 3.36667 70.6016 3.4V9.275ZM88.3813 19.3C87.2979 19.3 86.3146 19.025 85.4313 18.475C84.5479 17.925 83.8396 17.15 83.3063 16.15C82.7896 15.1333 82.5313 13.9417 82.5313 12.575C82.5313 11.275 82.7896 10.1083 83.3063 9.075C83.8396 8.04167 84.5646 7.225 85.4813 6.625C86.4146 6.00833 87.4813 5.7 88.6813 5.7C89.4313 5.7 90.1063 5.83333 90.7063 6.1C91.3229 6.35 91.8563 6.66667 92.3063 7.05V6H94.3563V15.85C94.3563 16.4833 94.5063 16.9 94.8063 17.1C95.1229 17.2833 95.4646 17.375 95.8313 17.375L95.3563 19.125C93.7563 19.125 92.7896 18.475 92.4563 17.175C92.0729 17.7083 91.5479 18.2 90.8813 18.65C90.2313 19.0833 89.3979 19.3 88.3813 19.3ZM88.8813 17.3C89.5146 17.3 90.1146 17.15 90.6813 16.85C91.2479 16.5333 91.7229 16.1417 92.1063 15.675V8.7C91.6563 8.38333 91.1563 8.13333 90.6063 7.95C90.0729 7.75 89.5063 7.65 88.9063 7.65C88.1063 7.65 87.3979 7.85833 86.7813 8.275C86.1813 8.675 85.7063 9.24167 85.3563 9.975C85.0063 10.6917 84.8313 11.5333 84.8313 12.5C84.8313 13.4333 85.0063 14.2667 85.3563 15C85.7063 15.7167 86.1896 16.2833 86.8063 16.7C87.4229 17.1 88.1146 17.3 88.8813 17.3ZM103.386 19.3C102.136 19.3 101.144 18.8917 100.411 18.075C99.6943 17.2417 99.3359 16.0583 99.3359 14.525V8.425H97.0859V6.475H99.3859L99.8609 2.375H101.586V6.475H105.186V8.425H101.586V14.7C101.586 15.6667 101.786 16.3417 102.186 16.725C102.603 17.1083 103.094 17.3 103.661 17.3C104.078 17.3 104.469 17.2333 104.836 17.1C105.219 16.9667 105.569 16.8083 105.886 16.625L106.511 18.425C106.178 18.625 105.728 18.8167 105.161 19C104.594 19.2 104.003 19.3 103.386 19.3ZM113.484 19.3C111.618 19.3 110.134 18.7083 109.034 17.525C107.951 16.325 107.409 14.65 107.409 12.5C107.409 11.2 107.651 10.0417 108.134 9.025C108.634 7.99167 109.326 7.18333 110.209 6.6C111.093 6 112.118 5.7 113.284 5.7C114.534 5.7 115.568 5.975 116.384 6.525C117.218 7.05833 117.843 7.78333 118.259 8.7C118.676 9.61667 118.884 10.625 118.884 11.725C118.884 12.3083 118.859 12.875 118.809 13.425H109.709C109.859 14.6417 110.284 15.5917 110.984 16.275C111.684 16.9583 112.609 17.3 113.759 17.3C114.509 17.3 115.184 17.225 115.784 17.075C116.384 16.9083 116.959 16.7 117.509 16.45L118.034 18.375C117.434 18.6417 116.759 18.8583 116.009 19.025C115.259 19.2083 114.418 19.3 113.484 19.3ZM109.684 11.6H116.809C116.809 10.3333 116.493 9.35833 115.859 8.675C115.226 7.99167 114.351 7.65 113.234 7.65C112.268 7.65 111.468 7.99167 110.834 8.675C110.201 9.34167 109.818 10.3167 109.684 11.6ZM125.383 19.3C124.399 19.3 123.508 19.175 122.708 18.925C121.924 18.675 121.274 18.35 120.758 17.95L121.708 16.075C122.141 16.4417 122.683 16.75 123.333 17C123.999 17.2333 124.708 17.35 125.458 17.35C126.391 17.35 127.091 17.2 127.558 16.9C128.041 16.5833 128.283 16.1833 128.283 15.7C128.283 15.35 128.191 15.0417 128.008 14.775C127.841 14.5083 127.524 14.25 127.058 14C126.591 13.7333 125.916 13.45 125.033 13.15C123.816 12.7333 122.899 12.2417 122.283 11.675C121.683 11.0917 121.383 10.2917 121.383 9.275C121.383 8.275 121.816 7.43333 122.683 6.75C123.566 6.05 124.783 5.7 126.333 5.7C127.166 5.7 127.908 5.79167 128.558 5.975C129.208 6.14167 129.791 6.35833 130.308 6.625L129.683 8.475C129.233 8.20833 128.716 7.99167 128.133 7.825C127.566 7.65833 126.933 7.575 126.233 7.575C125.366 7.575 124.708 7.75 124.258 8.1C123.808 8.45 123.583 8.83333 123.583 9.25C123.583 9.65 123.758 9.99167 124.108 10.275C124.458 10.5583 125.141 10.8667 126.158 11.2C127.808 11.75 128.958 12.3583 129.608 13.025C130.258 13.6917 130.583 14.525 130.583 15.525C130.583 16.6917 130.108 17.6167 129.158 18.3C128.224 18.9667 126.966 19.3 125.383 19.3Z" fill="white"/>
<path d="M0.672852 19V1.5H11.0479V3.55H3.04785V8.9H9.72285V10.85H3.04785V19H0.672852ZM13.167 19V6H15.417V19H13.167ZM14.292 3.775C13.8587 3.775 13.4837 3.61667 13.167 3.3C12.867 2.98333 12.717 2.61667 12.717 2.2C12.717 1.71667 12.8587 1.33333 13.142 1.05C13.4253 0.766666 13.8087 0.625 14.292 0.625C14.7253 0.625 15.092 0.783333 15.392 1.1C15.7087 1.4 15.867 1.76667 15.867 2.2C15.867 2.66667 15.7253 3.05 15.442 3.35C15.1587 3.63333 14.7753 3.775 14.292 3.775ZM27.967 19.225L23.592 13.8L19.267 19.175L17.667 17.775L22.292 12.4L17.842 7.25L19.592 5.725L23.617 10.925L27.567 5.825L29.242 7.25L24.917 12.3L29.667 17.775L27.967 19.225ZM36.7508 19.3C34.8841 19.3 33.4008 18.7083 32.3008 17.525C31.2174 16.325 30.6758 14.65 30.6758 12.5C30.6758 11.2 30.9174 10.0417 31.4008 9.025C31.9008 7.99167 32.5924 7.18333 33.4758 6.6C34.3591 6 35.3841 5.7 36.5508 5.7C37.8008 5.7 38.8341 5.975 39.6508 6.525C40.4841 7.05833 41.1091 7.78333 41.5258 8.7C41.9424 9.61667 42.1508 10.625 42.1508 11.725C42.1508 12.3083 42.1258 12.875 42.0758 13.425H32.9758C33.1258 14.6417 33.5508 15.5917 34.2508 16.275C34.9508 16.9583 35.8758 17.3 37.0258 17.3C37.7758 17.3 38.4508 17.225 39.0508 17.075C39.6508 16.9083 40.2258 16.7 40.7758 16.45L41.3008 18.375C40.7008 18.6417 40.0258 18.8583 39.2758 19.025C38.5258 19.2083 37.6841 19.3 36.7508 19.3ZM32.9508 11.6H40.0758C40.0758 10.3333 39.7591 9.35833 39.1258 8.675C38.4924 7.99167 37.6174 7.65 36.5008 7.65C35.5341 7.65 34.7341 7.99167 34.1008 8.675C33.4674 9.34167 33.0841 10.3167 32.9508 11.6ZM50.0744 19.3C49.0077 19.3 48.0327 19.025 47.1494 18.475C46.2661 17.925 45.5661 17.15 45.0494 16.15C44.5327 15.1333 44.2744 13.9417 44.2744 12.575C44.2744 11.2583 44.5327 10.0833 45.0494 9.05C45.5827 8.01667 46.2827 7.2 47.1494 6.6C48.0327 6 48.9994 5.7 50.0494 5.7C50.9161 5.7 51.6577 5.875 52.2744 6.225C52.9077 6.575 53.3994 6.93333 53.7494 7.3V0.5H55.9994V15.85C55.9994 16.4833 56.1494 16.9 56.4494 17.1C56.7661 17.2833 57.1077 17.375 57.4744 17.375L56.9994 19.125C55.4161 19.125 54.4494 18.4917 54.0994 17.225C53.7327 17.7417 53.2161 18.2167 52.5494 18.65C51.8994 19.0833 51.0744 19.3 50.0744 19.3ZM50.5744 17.3C51.1911 17.3 51.7744 17.1583 52.3244 16.875C52.8911 16.575 53.3661 16.1917 53.7494 15.725V9.275C53.4327 8.875 52.9911 8.50833 52.4244 8.175C51.8577 7.825 51.2327 7.65 50.5494 7.65C49.7494 7.65 49.0494 7.86667 48.4494 8.3C47.8494 8.73333 47.3827 9.31667 47.0494 10.05C46.7327 10.7667 46.5744 11.5833 46.5744 12.5C46.5744 13.4167 46.7494 14.2417 47.0994 14.975C47.4494 15.6917 47.9244 16.2583 48.5244 16.675C49.1411 17.0917 49.8244 17.3 50.5744 17.3ZM78.4266 19.3L76.2516 14.55C75.7016 13.3667 75.0099 12.525 74.1766 12.025C73.3432 11.525 72.2766 11.275 70.9766 11.275H70.6016V19H68.2266V1.55C69.1099 1.46667 69.9516 1.40833 70.7516 1.375C71.5682 1.325 72.4349 1.3 73.3516 1.3C75.4849 1.3 77.0849 1.73333 78.1516 2.6C79.2349 3.46667 79.7766 4.58333 79.7766 5.95C79.7766 7.16667 79.4099 8.15 78.6766 8.9C77.9599 9.63333 76.9182 10.1833 75.5516 10.55C76.0016 10.75 76.4016 10.9917 76.7516 11.275C77.1016 11.5417 77.4349 11.9083 77.7516 12.375C78.0849 12.825 78.4182 13.4167 78.7516 14.15L80.6516 18.25L78.4266 19.3ZM70.6016 9.275H73.3516C74.5516 9.275 75.5266 9.00833 76.2766 8.475C77.0266 7.94167 77.4016 7.175 77.4016 6.175C77.4016 5.34167 77.0516 4.65833 76.3516 4.125C75.6516 3.575 74.6516 3.3 73.3516 3.3C72.7849 3.3 72.2766 3.30833 71.8266 3.325C71.3766 3.34167 70.9682 3.36667 70.6016 3.4V9.275ZM88.3813 19.3C87.2979 19.3 86.3146 19.025 85.4313 18.475C84.5479 17.925 83.8396 17.15 83.3063 16.15C82.7896 15.1333 82.5313 13.9417 82.5313 12.575C82.5313 11.275 82.7896 10.1083 83.3063 9.075C83.8396 8.04167 84.5646 7.225 85.4813 6.625C86.4146 6.00833 87.4813 5.7 88.6813 5.7C89.4313 5.7 90.1063 5.83333 90.7063 6.1C91.3229 6.35 91.8563 6.66667 92.3063 7.05V6H94.3563V15.85C94.3563 16.4833 94.5063 16.9 94.8063 17.1C95.1229 17.2833 95.4646 17.375 95.8313 17.375L95.3563 19.125C93.7563 19.125 92.7896 18.475 92.4563 17.175C92.0729 17.7083 91.5479 18.2 90.8813 18.65C90.2313 19.0833 89.3979 19.3 88.3813 19.3ZM88.8813 17.3C89.5146 17.3 90.1146 17.15 90.6813 16.85C91.2479 16.5333 91.7229 16.1417 92.1063 15.675V8.7C91.6563 8.38333 91.1563 8.13333 90.6063 7.95C90.0729 7.75 89.5063 7.65 88.9063 7.65C88.1063 7.65 87.3979 7.85833 86.7813 8.275C86.1813 8.675 85.7063 9.24167 85.3563 9.975C85.0063 10.6917 84.8313 11.5333 84.8313 12.5C84.8313 13.4333 85.0063 14.2667 85.3563 15C85.7063 15.7167 86.1896 16.2833 86.8063 16.7C87.4229 17.1 88.1146 17.3 88.8813 17.3ZM103.386 19.3C102.136 19.3 101.144 18.8917 100.411 18.075C99.6943 17.2417 99.3359 16.0583 99.3359 14.525V8.425H97.0859V6.475H99.3859L99.8609 2.375H101.586V6.475H105.186V8.425H101.586V14.7C101.586 15.6667 101.786 16.3417 102.186 16.725C102.603 17.1083 103.094 17.3 103.661 17.3C104.078 17.3 104.469 17.2333 104.836 17.1C105.219 16.9667 105.569 16.8083 105.886 16.625L106.511 18.425C106.178 18.625 105.728 18.8167 105.161 19C104.594 19.2 104.003 19.3 103.386 19.3ZM113.484 19.3C111.618 19.3 110.134 18.7083 109.034 17.525C107.951 16.325 107.409 14.65 107.409 12.5C107.409 11.2 107.651 10.0417 108.134 9.025C108.634 7.99167 109.326 7.18333 110.209 6.6C111.093 6 112.118 5.7 113.284 5.7C114.534 5.7 115.568 5.975 116.384 6.525C117.218 7.05833 117.843 7.78333 118.259 8.7C118.676 9.61667 118.884 10.625 118.884 11.725C118.884 12.3083 118.859 12.875 118.809 13.425H109.709C109.859 14.6417 110.284 15.5917 110.984 16.275C111.684 16.9583 112.609 17.3 113.759 17.3C114.509 17.3 115.184 17.225 115.784 17.075C116.384 16.9083 116.959 16.7 117.509 16.45L118.034 18.375C117.434 18.6417 116.759 18.8583 116.009 19.025C115.259 19.2083 114.418 19.3 113.484 19.3ZM109.684 11.6H116.809C116.809 10.3333 116.493 9.35833 115.859 8.675C115.226 7.99167 114.351 7.65 113.234 7.65C112.268 7.65 111.468 7.99167 110.834 8.675C110.201 9.34167 109.818 10.3167 109.684 11.6ZM125.383 19.3C124.399 19.3 123.508 19.175 122.708 18.925C121.924 18.675 121.274 18.35 120.758 17.95L121.708 16.075C122.141 16.4417 122.683 16.75 123.333 17C123.999 17.2333 124.708 17.35 125.458 17.35C126.391 17.35 127.091 17.2 127.558 16.9C128.041 16.5833 128.283 16.1833 128.283 15.7C128.283 15.35 128.191 15.0417 128.008 14.775C127.841 14.5083 127.524 14.25 127.058 14C126.591 13.7333 125.916 13.45 125.033 13.15C123.816 12.7333 122.899 12.2417 122.283 11.675C121.683 11.0917 121.383 10.2917 121.383 9.275C121.383 8.275 121.816 7.43333 122.683 6.75C123.566 6.05 124.783 5.7 126.333 5.7C127.166 5.7 127.908 5.79167 128.558 5.975C129.208 6.14167 129.791 6.35833 130.308 6.625L129.683 8.475C129.233 8.20833 128.716 7.99167 128.133 7.825C127.566 7.65833 126.933 7.575 126.233 7.575C125.366 7.575 124.708 7.75 124.258 8.1C123.808 8.45 123.583 8.83333 123.583 9.25C123.583 9.65 123.758 9.99167 124.108 10.275C124.458 10.5583 125.141 10.8667 126.158 11.2C127.808 11.75 128.958 12.3583 129.608 13.025C130.258 13.6917 130.583 14.525 130.583 15.525C130.583 16.6917 130.108 17.6167 129.158 18.3C128.224 18.9667 126.966 19.3 125.383 19.3Z" fill="url(#paint0_linear_0_1077)"/>
<defs>
<linearGradient id="paint0_linear_0_1077" x1="65" y1="-4" x2="65" y2="26" gradientUnits="userSpaceOnUse">
<stop stop-color="#001A38"/>
<stop offset="0.9999" stop-color="#001A38" stop-opacity="0"/>
</linearGradient>
</defs>
</svg>
