<svg width="106" height="55" viewBox="0 0 106 55" fill="none" xmlns="http://www.w3.org/2000/svg">
<path d="M4.96973 19V1.5H7.34473V16.875H15.3697V19H4.96973ZM17.4883 19V6H19.7383V19H17.4883ZM18.6133 3.775C18.1799 3.775 17.8049 3.61667 17.4883 3.3C17.1883 2.98333 17.0383 2.61667 17.0383 2.2C17.0383 1.71667 17.1799 1.33333 17.4633 1.05C17.7466 0.766666 18.1299 0.625 18.6133 0.625C19.0466 0.625 19.4133 0.783333 19.7133 1.1C20.0299 1.4 20.1883 1.76667 20.1883 2.2C20.1883 2.66667 20.0466 3.05 19.7633 3.35C19.4799 3.63333 19.0966 3.775 18.6133 3.775ZM32.3383 24.5V17.675C31.9883 18.0417 31.4966 18.4083 30.8633 18.775C30.2466 19.125 29.5216 19.3 28.6883 19.3C27.6883 19.3 26.7383 19.0417 25.8383 18.525C24.9549 18.0083 24.2383 17.25 23.6883 16.25C23.1383 15.2333 22.8633 14 22.8633 12.55C22.8633 11.1833 23.1383 9.99167 23.6883 8.975C24.2383 7.94167 24.9716 7.14167 25.8883 6.575C26.8049 5.99167 27.8133 5.7 28.9133 5.7C29.6633 5.7 30.3383 5.83333 30.9383 6.1C31.5549 6.35 32.0883 6.66667 32.5383 7.05V6H34.5883V24.5H32.3383ZM29.1883 17.3C29.8549 17.3 30.4633 17.1417 31.0133 16.825C31.5633 16.5083 32.0049 16.1417 32.3383 15.725V8.7C31.8883 8.38333 31.3883 8.13333 30.8383 7.95C30.3049 7.75 29.7383 7.65 29.1383 7.65C28.4216 7.65 27.7633 7.84167 27.1633 8.225C26.5633 8.60833 26.0799 9.15833 25.7133 9.875C25.3466 10.5917 25.1633 11.4583 25.1633 12.475C25.1633 13.475 25.3466 14.3417 25.7133 15.075C26.0966 15.7917 26.5966 16.3417 27.2133 16.725C27.8299 17.1083 28.4883 17.3 29.1883 17.3ZM42.832 19.3C42.082 19.3 41.3737 19.1417 40.707 18.825C40.0404 18.5083 39.4987 18 39.082 17.3C38.6654 16.5833 38.457 15.6333 38.457 14.45V6H40.707V14.15C40.707 15.1667 40.9237 15.95 41.357 16.5C41.7904 17.0333 42.4237 17.3 43.257 17.3C43.9404 17.3 44.5987 17.1667 45.232 16.9C45.882 16.6167 46.457 16.2417 46.957 15.775V6H49.207V15.625C49.207 16.3417 49.357 16.8167 49.657 17.05C49.9737 17.2667 50.3154 17.375 50.682 17.375L50.207 19.125C48.657 19.125 47.6987 18.5083 47.332 17.275C46.7487 17.875 46.0737 18.3667 45.307 18.75C44.5404 19.1167 43.7154 19.3 42.832 19.3ZM53.6699 19V6H55.9199V19H53.6699ZM54.7949 3.775C54.3616 3.775 53.9866 3.61667 53.6699 3.3C53.3699 2.98333 53.2199 2.61667 53.2199 2.2C53.2199 1.71667 53.3616 1.33333 53.6449 1.05C53.9283 0.766666 54.3116 0.625 54.7949 0.625C55.2283 0.625 55.5949 0.783333 55.8949 1.1C56.2116 1.4 56.3699 1.76667 56.3699 2.2C56.3699 2.66667 56.2283 3.05 55.9449 3.35C55.6616 3.63333 55.2783 3.775 54.7949 3.775ZM64.8449 19.3C63.7783 19.3 62.8033 19.025 61.9199 18.475C61.0366 17.925 60.3366 17.15 59.8199 16.15C59.3033 15.1333 59.0449 13.9417 59.0449 12.575C59.0449 11.2583 59.3033 10.0833 59.8199 9.05C60.3533 8.01667 61.0533 7.2 61.9199 6.6C62.8033 6 63.7699 5.7 64.8199 5.7C65.6866 5.7 66.4283 5.875 67.0449 6.225C67.6783 6.575 68.1699 6.93333 68.5199 7.3V0.5H70.7699V15.85C70.7699 16.4833 70.9199 16.9 71.2199 17.1C71.5366 17.2833 71.8783 17.375 72.2449 17.375L71.7699 19.125C70.1866 19.125 69.2199 18.4917 68.8699 17.225C68.5033 17.7417 67.9866 18.2167 67.3199 18.65C66.6699 19.0833 65.8449 19.3 64.8449 19.3ZM65.3449 17.3C65.9616 17.3 66.5449 17.1583 67.0949 16.875C67.6616 16.575 68.1366 16.1917 68.5199 15.725V9.275C68.2033 8.875 67.7616 8.50833 67.1949 8.175C66.6283 7.825 66.0033 7.65 65.3199 7.65C64.5199 7.65 63.8199 7.86667 63.2199 8.3C62.6199 8.73333 62.1533 9.31667 61.8199 10.05C61.5033 10.7667 61.3449 11.5833 61.3449 12.5C61.3449 13.4167 61.5199 14.2417 61.8699 14.975C62.2199 15.6917 62.6949 16.2583 63.2949 16.675C63.9116 17.0917 64.5949 17.3 65.3449 17.3ZM75.252 19V6H77.502V19H75.252ZM76.377 3.775C75.9436 3.775 75.5686 3.61667 75.252 3.3C74.952 2.98333 74.802 2.61667 74.802 2.2C74.802 1.71667 74.9436 1.33333 75.227 1.05C75.5103 0.766666 75.8936 0.625 76.377 0.625C76.8103 0.625 77.177 0.783333 77.477 1.1C77.7936 1.4 77.952 1.76667 77.952 2.2C77.952 2.66667 77.8103 3.05 77.527 3.35C77.2436 3.63333 76.8603 3.775 76.377 3.775ZM86.052 19.3C84.802 19.3 83.8103 18.8917 83.077 18.075C82.3603 17.2417 82.002 16.0583 82.002 14.525V8.425H79.752V6.475H82.052L82.527 2.375H84.252V6.475H87.852V8.425H84.252V14.7C84.252 15.6667 84.452 16.3417 84.852 16.725C85.2686 17.1083 85.7603 17.3 86.327 17.3C86.7436 17.3 87.1353 17.2333 87.502 17.1C87.8853 16.9667 88.2353 16.8083 88.552 16.625L89.177 18.425C88.8436 18.625 88.3936 18.8167 87.827 19C87.2603 19.2 86.6686 19.3 86.052 19.3ZM91.5193 24.8C91.0193 24.8 90.5777 24.75 90.1943 24.65C89.8277 24.55 89.536 24.4333 89.3193 24.3L89.8193 22.425C90.0193 22.5417 90.2693 22.6417 90.5693 22.725C90.8693 22.8083 91.2027 22.85 91.5693 22.85C92.2693 22.85 92.8943 22.625 93.4443 22.175C93.9943 21.725 94.5193 20.8417 95.0193 19.525L95.5943 18.025H94.3943L89.3193 6.6L91.3193 5.7L96.1693 16.525L99.9443 5.8L102.019 6.6L97.2443 19.65C96.761 20.9833 96.236 22.025 95.6693 22.775C95.1027 23.525 94.4777 24.05 93.7943 24.35C93.111 24.65 92.3527 24.8 91.5193 24.8ZM0.355469 49V31.55C1.0388 31.4667 1.7888 31.4083 2.60547 31.375C3.4388 31.325 4.29714 31.3 5.18047 31.3C6.63047 31.3 7.8638 31.5333 8.88047 32C9.89714 32.45 10.6721 33.075 11.2055 33.875C11.7388 34.675 12.0055 35.5917 12.0055 36.625C12.0055 37.875 11.6971 38.9333 11.0805 39.8C10.4638 40.6667 9.60547 41.3333 8.50547 41.8C7.40547 42.25 6.13047 42.475 4.68047 42.475C3.98047 42.475 3.33047 42.45 2.73047 42.4V49H0.355469ZM4.98047 40.5C6.4638 40.5 7.6138 40.1667 8.43047 39.5C9.24714 38.8333 9.65547 37.9417 9.65547 36.825C9.65547 35.7417 9.2638 34.8833 8.48047 34.25C7.69714 33.6167 6.58047 33.3 5.13047 33.3C4.68047 33.3 4.25547 33.3083 3.85547 33.325C3.45547 33.3417 3.08047 33.3667 2.73047 33.4V40.375C2.99714 40.4083 3.32214 40.4417 3.70547 40.475C4.0888 40.4917 4.5138 40.5 4.98047 40.5ZM14.6318 49V36H16.8068V38.825C17.0235 38.275 17.3152 37.7667 17.6818 37.3C18.0485 36.8167 18.5068 36.4333 19.0568 36.15C19.6068 35.85 20.2485 35.7 20.9818 35.7C21.2318 35.7 21.4818 35.7167 21.7318 35.75C21.9818 35.7667 22.1902 35.8 22.3568 35.85L21.6818 38.175C21.3652 38.0417 20.9902 37.975 20.5568 37.975C19.9402 37.975 19.3485 38.15 18.7818 38.5C18.2318 38.85 17.7735 39.3917 17.4068 40.125C17.0568 40.8583 16.8818 41.7917 16.8818 42.925V49H14.6318ZM29.3354 49.3C28.102 49.3 26.9937 49.0167 26.0104 48.45C25.027 47.8667 24.252 47.0667 23.6854 46.05C23.1354 45.0167 22.8604 43.8333 22.8604 42.5C22.8604 41.1 23.1437 39.8917 23.7104 38.875C24.277 37.8583 25.052 37.075 26.0354 36.525C27.0187 35.975 28.1187 35.7 29.3354 35.7C30.552 35.7 31.6437 35.975 32.6104 36.525C33.5937 37.075 34.3687 37.8583 34.9354 38.875C35.5187 39.875 35.8104 41.0667 35.8104 42.45C35.8104 43.8333 35.527 45.0417 34.9604 46.075C34.3937 47.0917 33.6187 47.8833 32.6354 48.45C31.6687 49.0167 30.5687 49.3 29.3354 49.3ZM29.3354 47.3C30.652 47.3 31.677 46.8583 32.4104 45.975C33.1437 45.075 33.5104 43.9167 33.5104 42.5C33.5104 41.6333 33.327 40.8417 32.9604 40.125C32.5937 39.3917 32.0937 38.8083 31.4604 38.375C30.8437 37.925 30.1354 37.7 29.3354 37.7C28.0187 37.7 26.9937 38.1333 26.2604 39C25.527 39.8667 25.1604 41.0167 25.1604 42.45C25.1604 43.3167 25.3437 44.125 25.7104 44.875C26.077 45.6083 26.5687 46.2 27.1854 46.65C27.8187 47.0833 28.5354 47.3 29.3354 47.3ZM41.7885 49L36.5635 36.6L38.6135 35.75L43.0385 46.45L47.4635 35.75L49.3885 36.6L44.1385 49H41.7885ZM51.6436 49V36H53.8936V49H51.6436ZM52.7686 33.775C52.3352 33.775 51.9602 33.6167 51.6436 33.3C51.3436 32.9833 51.1936 32.6167 51.1936 32.2C51.1936 31.7167 51.3352 31.3333 51.6186 31.05C51.9019 30.7667 52.2852 30.625 52.7686 30.625C53.2019 30.625 53.5686 30.7833 53.8686 31.1C54.1852 31.4 54.3436 31.7667 54.3436 32.2C54.3436 32.6667 54.2019 33.05 53.9186 33.35C53.6352 33.6333 53.2519 33.775 52.7686 33.775ZM62.8186 49.3C61.7519 49.3 60.7769 49.025 59.8936 48.475C59.0102 47.925 58.3102 47.15 57.7936 46.15C57.2769 45.1333 57.0186 43.9417 57.0186 42.575C57.0186 41.2583 57.2769 40.0833 57.7936 39.05C58.3269 38.0167 59.0269 37.2 59.8936 36.6C60.7769 36 61.7436 35.7 62.7936 35.7C63.6602 35.7 64.4019 35.875 65.0186 36.225C65.6519 36.575 66.1436 36.9333 66.4936 37.3V30.5H68.7436V45.85C68.7436 46.4833 68.8936 46.9 69.1936 47.1C69.5102 47.2833 69.8519 47.375 70.2186 47.375L69.7436 49.125C68.1602 49.125 67.1936 48.4917 66.8436 47.225C66.4769 47.7417 65.9602 48.2167 65.2936 48.65C64.6436 49.0833 63.8186 49.3 62.8186 49.3ZM63.3186 47.3C63.9352 47.3 64.5186 47.1583 65.0686 46.875C65.6352 46.575 66.1102 46.1917 66.4936 45.725V39.275C66.1769 38.875 65.7352 38.5083 65.1686 38.175C64.6019 37.825 63.9769 37.65 63.2936 37.65C62.4936 37.65 61.7936 37.8667 61.1936 38.3C60.5936 38.7333 60.1269 39.3167 59.7936 40.05C59.4769 40.7667 59.3186 41.5833 59.3186 42.5C59.3186 43.4167 59.4936 44.2417 59.8436 44.975C60.1936 45.6917 60.6686 46.2583 61.2686 46.675C61.8852 47.0917 62.5686 47.3 63.3186 47.3ZM73.2256 49V36H75.4756V49H73.2256ZM74.3506 33.775C73.9173 33.775 73.5423 33.6167 73.2256 33.3C72.9256 32.9833 72.7756 32.6167 72.7756 32.2C72.7756 31.7167 72.9173 31.3333 73.2006 31.05C73.4839 30.7667 73.8673 30.625 74.3506 30.625C74.7839 30.625 75.1506 30.7833 75.4506 31.1C75.7673 31.4 75.9256 31.7667 75.9256 32.2C75.9256 32.6667 75.7839 33.05 75.5006 33.35C75.2173 33.6333 74.8339 33.775 74.3506 33.775ZM79.4756 49V36H81.6506V38.175C82.1173 37.475 82.7089 36.8917 83.4256 36.425C84.1589 35.9417 85.0256 35.7 86.0256 35.7C87.4923 35.7 88.5839 36.1417 89.3006 37.025C90.0339 37.9083 90.4006 39.075 90.4006 40.525V49H88.1506V40.775C88.1506 39.8417 87.9256 39.0917 87.4756 38.525C87.0423 37.9583 86.4339 37.675 85.6506 37.675C84.8839 37.675 84.1589 37.95 83.4756 38.5C82.7923 39.0333 82.2089 39.6667 81.7256 40.4V49H79.4756ZM99.0455 54.8C98.2788 54.8 97.5288 54.7083 96.7955 54.525C96.0788 54.3417 95.4372 54.0667 94.8705 53.7L95.6955 51.75C96.0955 52.0667 96.5622 52.325 97.0955 52.525C97.6288 52.7417 98.2788 52.85 99.0455 52.85C100.229 52.85 101.154 52.5333 101.821 51.9C102.504 51.2833 102.846 50.2917 102.846 48.925V47.325C102.512 47.725 102.029 48.1083 101.396 48.475C100.779 48.825 100.037 49 99.1705 49C98.1872 49 97.2538 48.75 96.3705 48.25C95.4872 47.7333 94.7705 46.9833 94.2205 46C93.6705 45.0167 93.3955 43.8333 93.3955 42.45C93.3955 41.15 93.6622 39.9917 94.1955 38.975C94.7455 37.9583 95.4788 37.1583 96.3955 36.575C97.3122 35.9917 98.3205 35.7 99.4205 35.7C100.154 35.7 100.821 35.825 101.421 36.075C102.021 36.325 102.537 36.6333 102.971 37V36H105.021V48.7C105.021 50.1333 104.771 51.3 104.271 52.2C103.771 53.1 103.071 53.7583 102.171 54.175C101.287 54.5917 100.246 54.8 99.0455 54.8ZM99.6705 47C100.337 47 100.937 46.85 101.471 46.55C102.004 46.25 102.437 45.9 102.771 45.5V38.7C102.404 38.4333 101.962 38.1917 101.446 37.975C100.929 37.7583 100.329 37.65 99.6455 37.65C98.9622 37.65 98.3205 37.8333 97.7205 38.2C97.1205 38.5667 96.6288 39.1 96.2455 39.8C95.8788 40.4833 95.6955 41.325 95.6955 42.325C95.6955 43.275 95.8788 44.1 96.2455 44.8C96.6288 45.5 97.1205 46.0417 97.7205 46.425C98.3205 46.8083 98.9705 47 99.6705 47Z" fill="white"/>
<path d="M4.96973 19V1.5H7.34473V16.875H15.3697V19H4.96973ZM17.4883 19V6H19.7383V19H17.4883ZM18.6133 3.775C18.1799 3.775 17.8049 3.61667 17.4883 3.3C17.1883 2.98333 17.0383 2.61667 17.0383 2.2C17.0383 1.71667 17.1799 1.33333 17.4633 1.05C17.7466 0.766666 18.1299 0.625 18.6133 0.625C19.0466 0.625 19.4133 0.783333 19.7133 1.1C20.0299 1.4 20.1883 1.76667 20.1883 2.2C20.1883 2.66667 20.0466 3.05 19.7633 3.35C19.4799 3.63333 19.0966 3.775 18.6133 3.775ZM32.3383 24.5V17.675C31.9883 18.0417 31.4966 18.4083 30.8633 18.775C30.2466 19.125 29.5216 19.3 28.6883 19.3C27.6883 19.3 26.7383 19.0417 25.8383 18.525C24.9549 18.0083 24.2383 17.25 23.6883 16.25C23.1383 15.2333 22.8633 14 22.8633 12.55C22.8633 11.1833 23.1383 9.99167 23.6883 8.975C24.2383 7.94167 24.9716 7.14167 25.8883 6.575C26.8049 5.99167 27.8133 5.7 28.9133 5.7C29.6633 5.7 30.3383 5.83333 30.9383 6.1C31.5549 6.35 32.0883 6.66667 32.5383 7.05V6H34.5883V24.5H32.3383ZM29.1883 17.3C29.8549 17.3 30.4633 17.1417 31.0133 16.825C31.5633 16.5083 32.0049 16.1417 32.3383 15.725V8.7C31.8883 8.38333 31.3883 8.13333 30.8383 7.95C30.3049 7.75 29.7383 7.65 29.1383 7.65C28.4216 7.65 27.7633 7.84167 27.1633 8.225C26.5633 8.60833 26.0799 9.15833 25.7133 9.875C25.3466 10.5917 25.1633 11.4583 25.1633 12.475C25.1633 13.475 25.3466 14.3417 25.7133 15.075C26.0966 15.7917 26.5966 16.3417 27.2133 16.725C27.8299 17.1083 28.4883 17.3 29.1883 17.3ZM42.832 19.3C42.082 19.3 41.3737 19.1417 40.707 18.825C40.0404 18.5083 39.4987 18 39.082 17.3C38.6654 16.5833 38.457 15.6333 38.457 14.45V6H40.707V14.15C40.707 15.1667 40.9237 15.95 41.357 16.5C41.7904 17.0333 42.4237 17.3 43.257 17.3C43.9404 17.3 44.5987 17.1667 45.232 16.9C45.882 16.6167 46.457 16.2417 46.957 15.775V6H49.207V15.625C49.207 16.3417 49.357 16.8167 49.657 17.05C49.9737 17.2667 50.3154 17.375 50.682 17.375L50.207 19.125C48.657 19.125 47.6987 18.5083 47.332 17.275C46.7487 17.875 46.0737 18.3667 45.307 18.75C44.5404 19.1167 43.7154 19.3 42.832 19.3ZM53.6699 19V6H55.9199V19H53.6699ZM54.7949 3.775C54.3616 3.775 53.9866 3.61667 53.6699 3.3C53.3699 2.98333 53.2199 2.61667 53.2199 2.2C53.2199 1.71667 53.3616 1.33333 53.6449 1.05C53.9283 0.766666 54.3116 0.625 54.7949 0.625C55.2283 0.625 55.5949 0.783333 55.8949 1.1C56.2116 1.4 56.3699 1.76667 56.3699 2.2C56.3699 2.66667 56.2283 3.05 55.9449 3.35C55.6616 3.63333 55.2783 3.775 54.7949 3.775ZM64.8449 19.3C63.7783 19.3 62.8033 19.025 61.9199 18.475C61.0366 17.925 60.3366 17.15 59.8199 16.15C59.3033 15.1333 59.0449 13.9417 59.0449 12.575C59.0449 11.2583 59.3033 10.0833 59.8199 9.05C60.3533 8.01667 61.0533 7.2 61.9199 6.6C62.8033 6 63.7699 5.7 64.8199 5.7C65.6866 5.7 66.4283 5.875 67.0449 6.225C67.6783 6.575 68.1699 6.93333 68.5199 7.3V0.5H70.7699V15.85C70.7699 16.4833 70.9199 16.9 71.2199 17.1C71.5366 17.2833 71.8783 17.375 72.2449 17.375L71.7699 19.125C70.1866 19.125 69.2199 18.4917 68.8699 17.225C68.5033 17.7417 67.9866 18.2167 67.3199 18.65C66.6699 19.0833 65.8449 19.3 64.8449 19.3ZM65.3449 17.3C65.9616 17.3 66.5449 17.1583 67.0949 16.875C67.6616 16.575 68.1366 16.1917 68.5199 15.725V9.275C68.2033 8.875 67.7616 8.50833 67.1949 8.175C66.6283 7.825 66.0033 7.65 65.3199 7.65C64.5199 7.65 63.8199 7.86667 63.2199 8.3C62.6199 8.73333 62.1533 9.31667 61.8199 10.05C61.5033 10.7667 61.3449 11.5833 61.3449 12.5C61.3449 13.4167 61.5199 14.2417 61.8699 14.975C62.2199 15.6917 62.6949 16.2583 63.2949 16.675C63.9116 17.0917 64.5949 17.3 65.3449 17.3ZM75.252 19V6H77.502V19H75.252ZM76.377 3.775C75.9436 3.775 75.5686 3.61667 75.252 3.3C74.952 2.98333 74.802 2.61667 74.802 2.2C74.802 1.71667 74.9436 1.33333 75.227 1.05C75.5103 0.766666 75.8936 0.625 76.377 0.625C76.8103 0.625 77.177 0.783333 77.477 1.1C77.7936 1.4 77.952 1.76667 77.952 2.2C77.952 2.66667 77.8103 3.05 77.527 3.35C77.2436 3.63333 76.8603 3.775 76.377 3.775ZM86.052 19.3C84.802 19.3 83.8103 18.8917 83.077 18.075C82.3603 17.2417 82.002 16.0583 82.002 14.525V8.425H79.752V6.475H82.052L82.527 2.375H84.252V6.475H87.852V8.425H84.252V14.7C84.252 15.6667 84.452 16.3417 84.852 16.725C85.2686 17.1083 85.7603 17.3 86.327 17.3C86.7436 17.3 87.1353 17.2333 87.502 17.1C87.8853 16.9667 88.2353 16.8083 88.552 16.625L89.177 18.425C88.8436 18.625 88.3936 18.8167 87.827 19C87.2603 19.2 86.6686 19.3 86.052 19.3ZM91.5193 24.8C91.0193 24.8 90.5777 24.75 90.1943 24.65C89.8277 24.55 89.536 24.4333 89.3193 24.3L89.8193 22.425C90.0193 22.5417 90.2693 22.6417 90.5693 22.725C90.8693 22.8083 91.2027 22.85 91.5693 22.85C92.2693 22.85 92.8943 22.625 93.4443 22.175C93.9943 21.725 94.5193 20.8417 95.0193 19.525L95.5943 18.025H94.3943L89.3193 6.6L91.3193 5.7L96.1693 16.525L99.9443 5.8L102.019 6.6L97.2443 19.65C96.761 20.9833 96.236 22.025 95.6693 22.775C95.1027 23.525 94.4777 24.05 93.7943 24.35C93.111 24.65 92.3527 24.8 91.5193 24.8ZM0.355469 49V31.55C1.0388 31.4667 1.7888 31.4083 2.60547 31.375C3.4388 31.325 4.29714 31.3 5.18047 31.3C6.63047 31.3 7.8638 31.5333 8.88047 32C9.89714 32.45 10.6721 33.075 11.2055 33.875C11.7388 34.675 12.0055 35.5917 12.0055 36.625C12.0055 37.875 11.6971 38.9333 11.0805 39.8C10.4638 40.6667 9.60547 41.3333 8.50547 41.8C7.40547 42.25 6.13047 42.475 4.68047 42.475C3.98047 42.475 3.33047 42.45 2.73047 42.4V49H0.355469ZM4.98047 40.5C6.4638 40.5 7.6138 40.1667 8.43047 39.5C9.24714 38.8333 9.65547 37.9417 9.65547 36.825C9.65547 35.7417 9.2638 34.8833 8.48047 34.25C7.69714 33.6167 6.58047 33.3 5.13047 33.3C4.68047 33.3 4.25547 33.3083 3.85547 33.325C3.45547 33.3417 3.08047 33.3667 2.73047 33.4V40.375C2.99714 40.4083 3.32214 40.4417 3.70547 40.475C4.0888 40.4917 4.5138 40.5 4.98047 40.5ZM14.6318 49V36H16.8068V38.825C17.0235 38.275 17.3152 37.7667 17.6818 37.3C18.0485 36.8167 18.5068 36.4333 19.0568 36.15C19.6068 35.85 20.2485 35.7 20.9818 35.7C21.2318 35.7 21.4818 35.7167 21.7318 35.75C21.9818 35.7667 22.1902 35.8 22.3568 35.85L21.6818 38.175C21.3652 38.0417 20.9902 37.975 20.5568 37.975C19.9402 37.975 19.3485 38.15 18.7818 38.5C18.2318 38.85 17.7735 39.3917 17.4068 40.125C17.0568 40.8583 16.8818 41.7917 16.8818 42.925V49H14.6318ZM29.3354 49.3C28.102 49.3 26.9937 49.0167 26.0104 48.45C25.027 47.8667 24.252 47.0667 23.6854 46.05C23.1354 45.0167 22.8604 43.8333 22.8604 42.5C22.8604 41.1 23.1437 39.8917 23.7104 38.875C24.277 37.8583 25.052 37.075 26.0354 36.525C27.0187 35.975 28.1187 35.7 29.3354 35.7C30.552 35.7 31.6437 35.975 32.6104 36.525C33.5937 37.075 34.3687 37.8583 34.9354 38.875C35.5187 39.875 35.8104 41.0667 35.8104 42.45C35.8104 43.8333 35.527 45.0417 34.9604 46.075C34.3937 47.0917 33.6187 47.8833 32.6354 48.45C31.6687 49.0167 30.5687 49.3 29.3354 49.3ZM29.3354 47.3C30.652 47.3 31.677 46.8583 32.4104 45.975C33.1437 45.075 33.5104 43.9167 33.5104 42.5C33.5104 41.6333 33.327 40.8417 32.9604 40.125C32.5937 39.3917 32.0937 38.8083 31.4604 38.375C30.8437 37.925 30.1354 37.7 29.3354 37.7C28.0187 37.7 26.9937 38.1333 26.2604 39C25.527 39.8667 25.1604 41.0167 25.1604 42.45C25.1604 43.3167 25.3437 44.125 25.7104 44.875C26.077 45.6083 26.5687 46.2 27.1854 46.65C27.8187 47.0833 28.5354 47.3 29.3354 47.3ZM41.7885 49L36.5635 36.6L38.6135 35.75L43.0385 46.45L47.4635 35.75L49.3885 36.6L44.1385 49H41.7885ZM51.6436 49V36H53.8936V49H51.6436ZM52.7686 33.775C52.3352 33.775 51.9602 33.6167 51.6436 33.3C51.3436 32.9833 51.1936 32.6167 51.1936 32.2C51.1936 31.7167 51.3352 31.3333 51.6186 31.05C51.9019 30.7667 52.2852 30.625 52.7686 30.625C53.2019 30.625 53.5686 30.7833 53.8686 31.1C54.1852 31.4 54.3436 31.7667 54.3436 32.2C54.3436 32.6667 54.2019 33.05 53.9186 33.35C53.6352 33.6333 53.2519 33.775 52.7686 33.775ZM62.8186 49.3C61.7519 49.3 60.7769 49.025 59.8936 48.475C59.0102 47.925 58.3102 47.15 57.7936 46.15C57.2769 45.1333 57.0186 43.9417 57.0186 42.575C57.0186 41.2583 57.2769 40.0833 57.7936 39.05C58.3269 38.0167 59.0269 37.2 59.8936 36.6C60.7769 36 61.7436 35.7 62.7936 35.7C63.6602 35.7 64.4019 35.875 65.0186 36.225C65.6519 36.575 66.1436 36.9333 66.4936 37.3V30.5H68.7436V45.85C68.7436 46.4833 68.8936 46.9 69.1936 47.1C69.5102 47.2833 69.8519 47.375 70.2186 47.375L69.7436 49.125C68.1602 49.125 67.1936 48.4917 66.8436 47.225C66.4769 47.7417 65.9602 48.2167 65.2936 48.65C64.6436 49.0833 63.8186 49.3 62.8186 49.3ZM63.3186 47.3C63.9352 47.3 64.5186 47.1583 65.0686 46.875C65.6352 46.575 66.1102 46.1917 66.4936 45.725V39.275C66.1769 38.875 65.7352 38.5083 65.1686 38.175C64.6019 37.825 63.9769 37.65 63.2936 37.65C62.4936 37.65 61.7936 37.8667 61.1936 38.3C60.5936 38.7333 60.1269 39.3167 59.7936 40.05C59.4769 40.7667 59.3186 41.5833 59.3186 42.5C59.3186 43.4167 59.4936 44.2417 59.8436 44.975C60.1936 45.6917 60.6686 46.2583 61.2686 46.675C61.8852 47.0917 62.5686 47.3 63.3186 47.3ZM73.2256 49V36H75.4756V49H73.2256ZM74.3506 33.775C73.9173 33.775 73.5423 33.6167 73.2256 33.3C72.9256 32.9833 72.7756 32.6167 72.7756 32.2C72.7756 31.7167 72.9173 31.3333 73.2006 31.05C73.4839 30.7667 73.8673 30.625 74.3506 30.625C74.7839 30.625 75.1506 30.7833 75.4506 31.1C75.7673 31.4 75.9256 31.7667 75.9256 32.2C75.9256 32.6667 75.7839 33.05 75.5006 33.35C75.2173 33.6333 74.8339 33.775 74.3506 33.775ZM79.4756 49V36H81.6506V38.175C82.1173 37.475 82.7089 36.8917 83.4256 36.425C84.1589 35.9417 85.0256 35.7 86.0256 35.7C87.4923 35.7 88.5839 36.1417 89.3006 37.025C90.0339 37.9083 90.4006 39.075 90.4006 40.525V49H88.1506V40.775C88.1506 39.8417 87.9256 39.0917 87.4756 38.525C87.0423 37.9583 86.4339 37.675 85.6506 37.675C84.8839 37.675 84.1589 37.95 83.4756 38.5C82.7923 39.0333 82.2089 39.6667 81.7256 40.4V49H79.4756ZM99.0455 54.8C98.2788 54.8 97.5288 54.7083 96.7955 54.525C96.0788 54.3417 95.4372 54.0667 94.8705 53.7L95.6955 51.75C96.0955 52.0667 96.5622 52.325 97.0955 52.525C97.6288 52.7417 98.2788 52.85 99.0455 52.85C100.229 52.85 101.154 52.5333 101.821 51.9C102.504 51.2833 102.846 50.2917 102.846 48.925V47.325C102.512 47.725 102.029 48.1083 101.396 48.475C100.779 48.825 100.037 49 99.1705 49C98.1872 49 97.2538 48.75 96.3705 48.25C95.4872 47.7333 94.7705 46.9833 94.2205 46C93.6705 45.0167 93.3955 43.8333 93.3955 42.45C93.3955 41.15 93.6622 39.9917 94.1955 38.975C94.7455 37.9583 95.4788 37.1583 96.3955 36.575C97.3122 35.9917 98.3205 35.7 99.4205 35.7C100.154 35.7 100.821 35.825 101.421 36.075C102.021 36.325 102.537 36.6333 102.971 37V36H105.021V48.7C105.021 50.1333 104.771 51.3 104.271 52.2C103.771 53.1 103.071 53.7583 102.171 54.175C101.287 54.5917 100.246 54.8 99.0455 54.8ZM99.6705 47C100.337 47 100.937 46.85 101.471 46.55C102.004 46.25 102.437 45.9 102.771 45.5V38.7C102.404 38.4333 101.962 38.1917 101.446 37.975C100.929 37.7583 100.329 37.65 99.6455 37.65C98.9622 37.65 98.3205 37.8333 97.7205 38.2C97.1205 38.5667 96.6288 39.1 96.2455 39.8C95.8788 40.4833 95.6955 41.325 95.6955 42.325C95.6955 43.275 95.8788 44.1 96.2455 44.8C96.6288 45.5 97.1205 46.0417 97.7205 46.425C98.3205 46.8083 98.9705 47 99.6705 47Z" fill="url(#paint0_linear_0_1079)"/>
<defs>
<linearGradient id="paint0_linear_0_1079" x1="52.5" y1="-4" x2="52.5" y2="56" gradientUnits="userSpaceOnUse">
<stop stop-color="#001A38"/>
<stop offset="0.9999" stop-color="#001A38" stop-opacity="0"/>
</linearGradient>
</defs>
</svg>
