<svg width="419" height="91" viewBox="0 0 419 91" fill="none" xmlns="http://www.w3.org/2000/svg">
<g filter="url(#filter0_dd_0_1089)">
<path d="M4.79418 81V1.428C7.91018 1.048 11.3302 0.781998 15.0542 0.629995C18.8542 0.401998 22.7682 0.288 26.7962 0.288C33.4082 0.288 39.0322 1.352 43.6682 3.48C48.3042 5.532 51.8382 8.38199 54.2702 12.03C56.7022 15.678 57.9182 19.858 57.9182 24.57C57.9182 30.27 56.5122 35.096 53.7002 39.048C50.8882 43 46.9742 46.04 41.9582 48.168C36.9422 50.22 31.1282 51.246 24.5162 51.246C21.3242 51.246 18.3602 51.132 15.6242 50.904V81H4.79418ZM25.8842 42.24C32.6482 42.24 37.8922 40.72 41.6162 37.68C45.3402 34.64 47.2022 30.574 47.2022 25.482C47.2022 20.542 45.4162 16.628 41.8442 13.74C38.2722 10.852 33.1802 9.408 26.5682 9.408C24.5162 9.408 22.5782 9.446 20.7542 9.522C18.9302 9.598 17.2202 9.712 15.6242 9.864V41.67C16.8402 41.822 18.3222 41.974 20.0702 42.126C21.8182 42.202 23.7562 42.24 25.8842 42.24ZM90.9105 82.368C85.9705 82.368 81.4865 81.114 77.4585 78.606C73.4305 76.098 70.2005 72.564 67.7685 68.004C65.4125 63.368 64.2345 57.934 64.2345 51.702C64.2345 45.774 65.4125 40.454 67.7685 35.742C70.2005 31.03 73.5065 27.306 77.6865 24.57C81.9425 21.758 86.8065 20.352 92.2785 20.352C95.6985 20.352 98.7765 20.96 101.512 22.176C104.324 23.316 106.756 24.76 108.808 26.508V21.72H118.156V66.636C118.156 69.524 118.84 71.424 120.208 72.336C121.652 73.172 123.21 73.59 124.882 73.59L122.716 81.57C115.42 81.57 111.012 78.606 109.492 72.678C107.744 75.11 105.35 77.352 102.31 79.404C99.3465 81.38 95.5465 82.368 90.9105 82.368ZM93.1905 73.248C96.0785 73.248 98.8145 72.564 101.398 71.196C103.982 69.752 106.148 67.966 107.896 65.838V34.032C105.844 32.588 103.564 31.448 101.056 30.612C98.6245 29.7 96.0405 29.244 93.3045 29.244C89.6565 29.244 86.4265 30.194 83.6145 32.094C80.8785 33.918 78.7125 36.502 77.1165 39.846C75.5205 43.114 74.7225 46.952 74.7225 51.36C74.7225 55.616 75.5205 59.416 77.1165 62.76C78.7125 66.028 80.9165 68.612 83.7285 70.512C86.5405 72.336 89.6945 73.248 93.1905 73.248ZM138.584 81V21.72H148.502V34.602C149.49 32.094 150.82 29.776 152.492 27.648C154.164 25.444 156.254 23.696 158.762 22.404C161.27 21.036 164.196 20.352 167.54 20.352C168.68 20.352 169.82 20.428 170.96 20.58C172.1 20.656 173.05 20.808 173.81 21.036L170.732 31.638C169.288 31.03 167.578 30.726 165.602 30.726C162.79 30.726 160.092 31.524 157.508 33.12C155 34.716 152.91 37.186 151.238 40.53C149.642 43.874 148.844 48.13 148.844 53.298V81H138.584ZM203.352 82.368C198.412 82.368 193.928 81.114 189.9 78.606C185.872 76.098 182.642 72.564 180.21 68.004C177.854 63.368 176.676 57.934 176.676 51.702C176.676 45.774 177.854 40.454 180.21 35.742C182.642 31.03 185.948 27.306 190.128 24.57C194.384 21.758 199.248 20.352 204.72 20.352C208.14 20.352 211.218 20.96 213.954 22.176C216.766 23.316 219.198 24.76 221.25 26.508V21.72H230.598V66.636C230.598 69.524 231.282 71.424 232.65 72.336C234.094 73.172 235.652 73.59 237.324 73.59L235.158 81.57C227.862 81.57 223.454 78.606 221.934 72.678C220.186 75.11 217.792 77.352 214.752 79.404C211.788 81.38 207.988 82.368 203.352 82.368ZM205.632 73.248C208.52 73.248 211.256 72.564 213.84 71.196C216.424 69.752 218.59 67.966 220.338 65.838V34.032C218.286 32.588 216.006 31.448 213.498 30.612C211.066 29.7 208.482 29.244 205.746 29.244C202.098 29.244 198.868 30.194 196.056 32.094C193.32 33.918 191.154 36.502 189.558 39.846C187.962 43.114 187.164 46.952 187.164 51.36C187.164 55.616 187.962 59.416 189.558 62.76C191.154 66.028 193.358 68.612 196.17 70.512C198.982 72.336 202.136 73.248 205.632 73.248ZM251.025 81V21.72H260.943V31.638C263.071 28.446 265.769 25.786 269.037 23.658C272.305 21.454 276.029 20.352 280.209 20.352C284.921 20.352 288.759 21.492 291.723 23.772C294.763 26.052 296.891 29.092 298.107 32.892C300.463 29.396 303.237 26.432 306.429 24C309.697 21.568 313.725 20.352 318.513 20.352C324.973 20.352 329.761 22.404 332.877 26.508C336.069 30.536 337.665 35.818 337.665 42.354V81H327.405V43.152C327.405 39.048 326.455 35.742 324.555 33.234C322.655 30.65 320.033 29.358 316.689 29.358C313.269 29.358 310.077 30.65 307.113 33.234C304.225 35.742 301.679 38.706 299.475 42.126V81H289.215V43.152C289.215 39.048 288.265 35.742 286.365 33.234C284.465 30.65 281.843 29.358 278.499 29.358C275.155 29.358 272.001 30.612 269.037 33.12C266.073 35.552 263.489 38.44 261.285 41.784V81H251.025ZM405.5 82.14L380.306 47.94L355.91 81.912L347.36 75.414L374.15 40.416L348.5 6.9L357.506 0.173994L380.648 32.55L403.562 0.515997L411.998 6.9L387.146 39.846L414.278 75.414L405.5 82.14Z" fill="white"/>
<path d="M4.79418 81V1.428C7.91018 1.048 11.3302 0.781998 15.0542 0.629995C18.8542 0.401998 22.7682 0.288 26.7962 0.288C33.4082 0.288 39.0322 1.352 43.6682 3.48C48.3042 5.532 51.8382 8.38199 54.2702 12.03C56.7022 15.678 57.9182 19.858 57.9182 24.57C57.9182 30.27 56.5122 35.096 53.7002 39.048C50.8882 43 46.9742 46.04 41.9582 48.168C36.9422 50.22 31.1282 51.246 24.5162 51.246C21.3242 51.246 18.3602 51.132 15.6242 50.904V81H4.79418ZM25.8842 42.24C32.6482 42.24 37.8922 40.72 41.6162 37.68C45.3402 34.64 47.2022 30.574 47.2022 25.482C47.2022 20.542 45.4162 16.628 41.8442 13.74C38.2722 10.852 33.1802 9.408 26.5682 9.408C24.5162 9.408 22.5782 9.446 20.7542 9.522C18.9302 9.598 17.2202 9.712 15.6242 9.864V41.67C16.8402 41.822 18.3222 41.974 20.0702 42.126C21.8182 42.202 23.7562 42.24 25.8842 42.24ZM90.9105 82.368C85.9705 82.368 81.4865 81.114 77.4585 78.606C73.4305 76.098 70.2005 72.564 67.7685 68.004C65.4125 63.368 64.2345 57.934 64.2345 51.702C64.2345 45.774 65.4125 40.454 67.7685 35.742C70.2005 31.03 73.5065 27.306 77.6865 24.57C81.9425 21.758 86.8065 20.352 92.2785 20.352C95.6985 20.352 98.7765 20.96 101.512 22.176C104.324 23.316 106.756 24.76 108.808 26.508V21.72H118.156V66.636C118.156 69.524 118.84 71.424 120.208 72.336C121.652 73.172 123.21 73.59 124.882 73.59L122.716 81.57C115.42 81.57 111.012 78.606 109.492 72.678C107.744 75.11 105.35 77.352 102.31 79.404C99.3465 81.38 95.5465 82.368 90.9105 82.368ZM93.1905 73.248C96.0785 73.248 98.8145 72.564 101.398 71.196C103.982 69.752 106.148 67.966 107.896 65.838V34.032C105.844 32.588 103.564 31.448 101.056 30.612C98.6245 29.7 96.0405 29.244 93.3045 29.244C89.6565 29.244 86.4265 30.194 83.6145 32.094C80.8785 33.918 78.7125 36.502 77.1165 39.846C75.5205 43.114 74.7225 46.952 74.7225 51.36C74.7225 55.616 75.5205 59.416 77.1165 62.76C78.7125 66.028 80.9165 68.612 83.7285 70.512C86.5405 72.336 89.6945 73.248 93.1905 73.248ZM138.584 81V21.72H148.502V34.602C149.49 32.094 150.82 29.776 152.492 27.648C154.164 25.444 156.254 23.696 158.762 22.404C161.27 21.036 164.196 20.352 167.54 20.352C168.68 20.352 169.82 20.428 170.96 20.58C172.1 20.656 173.05 20.808 173.81 21.036L170.732 31.638C169.288 31.03 167.578 30.726 165.602 30.726C162.79 30.726 160.092 31.524 157.508 33.12C155 34.716 152.91 37.186 151.238 40.53C149.642 43.874 148.844 48.13 148.844 53.298V81H138.584ZM203.352 82.368C198.412 82.368 193.928 81.114 189.9 78.606C185.872 76.098 182.642 72.564 180.21 68.004C177.854 63.368 176.676 57.934 176.676 51.702C176.676 45.774 177.854 40.454 180.21 35.742C182.642 31.03 185.948 27.306 190.128 24.57C194.384 21.758 199.248 20.352 204.72 20.352C208.14 20.352 211.218 20.96 213.954 22.176C216.766 23.316 219.198 24.76 221.25 26.508V21.72H230.598V66.636C230.598 69.524 231.282 71.424 232.65 72.336C234.094 73.172 235.652 73.59 237.324 73.59L235.158 81.57C227.862 81.57 223.454 78.606 221.934 72.678C220.186 75.11 217.792 77.352 214.752 79.404C211.788 81.38 207.988 82.368 203.352 82.368ZM205.632 73.248C208.52 73.248 211.256 72.564 213.84 71.196C216.424 69.752 218.59 67.966 220.338 65.838V34.032C218.286 32.588 216.006 31.448 213.498 30.612C211.066 29.7 208.482 29.244 205.746 29.244C202.098 29.244 198.868 30.194 196.056 32.094C193.32 33.918 191.154 36.502 189.558 39.846C187.962 43.114 187.164 46.952 187.164 51.36C187.164 55.616 187.962 59.416 189.558 62.76C191.154 66.028 193.358 68.612 196.17 70.512C198.982 72.336 202.136 73.248 205.632 73.248ZM251.025 81V21.72H260.943V31.638C263.071 28.446 265.769 25.786 269.037 23.658C272.305 21.454 276.029 20.352 280.209 20.352C284.921 20.352 288.759 21.492 291.723 23.772C294.763 26.052 296.891 29.092 298.107 32.892C300.463 29.396 303.237 26.432 306.429 24C309.697 21.568 313.725 20.352 318.513 20.352C324.973 20.352 329.761 22.404 332.877 26.508C336.069 30.536 337.665 35.818 337.665 42.354V81H327.405V43.152C327.405 39.048 326.455 35.742 324.555 33.234C322.655 30.65 320.033 29.358 316.689 29.358C313.269 29.358 310.077 30.65 307.113 33.234C304.225 35.742 301.679 38.706 299.475 42.126V81H289.215V43.152C289.215 39.048 288.265 35.742 286.365 33.234C284.465 30.65 281.843 29.358 278.499 29.358C275.155 29.358 272.001 30.612 269.037 33.12C266.073 35.552 263.489 38.44 261.285 41.784V81H251.025ZM405.5 82.14L380.306 47.94L355.91 81.912L347.36 75.414L374.15 40.416L348.5 6.9L357.506 0.173994L380.648 32.55L403.562 0.515997L411.998 6.9L387.146 39.846L414.278 75.414L405.5 82.14Z" fill="url(#paint0_linear_0_1089)"/>
</g>
<defs>
<filter id="filter0_dd_0_1089" x="0.794189" y="0.17395" width="417.484" height="90.1941" filterUnits="userSpaceOnUse" color-interpolation-filters="sRGB">
<feFlood flood-opacity="0" result="BackgroundImageFix"/>
<feColorMatrix in="SourceAlpha" type="matrix" values="0 0 0 0 0 0 0 0 0 0 0 0 0 0 0 0 0 0 127 0" result="hardAlpha"/>
<feOffset dy="4"/>
<feGaussianBlur stdDeviation="2"/>
<feComposite in2="hardAlpha" operator="out"/>
<feColorMatrix type="matrix" values="0 0 0 0 0 0 0 0 0 0 0 0 0 0 0 0 0 0 0.25 0"/>
<feBlend mode="normal" in2="BackgroundImageFix" result="effect1_dropShadow_0_1089"/>
<feColorMatrix in="SourceAlpha" type="matrix" values="0 0 0 0 0 0 0 0 0 0 0 0 0 0 0 0 0 0 127 0" result="hardAlpha"/>
<feOffset dy="4"/>
<feGaussianBlur stdDeviation="2"/>
<feComposite in2="hardAlpha" operator="out"/>
<feColorMatrix type="matrix" values="0 0 0 0 0 0 0 0 0 0 0 0 0 0 0 0 0 0 0.25 0"/>
<feBlend mode="normal" in2="effect1_dropShadow_0_1089" result="effect2_dropShadow_0_1089"/>
<feBlend mode="normal" in="SourceGraphic" in2="effect2_dropShadow_0_1089" result="shape"/>
</filter>
<linearGradient id="paint0_linear_0_1089" x1="205" y1="-24" x2="205" y2="111" gradientUnits="userSpaceOnUse">
<stop stop-color="#001A38" stop-opacity="0"/>
<stop offset="1" stop-color="#001A38"/>
</linearGradient>
</defs>
</svg>
