<svg width="88" height="55" viewBox="0 0 88 55" fill="none" xmlns="http://www.w3.org/2000/svg">
<path d="M21.6136 19V12.35L15.5386 2.475L17.5386 1.275L22.8886 10.15L28.1386 1.375L30.0136 2.475L23.9886 12.35V19H21.6136ZM32.2544 19V6H34.5044V19H32.2544ZM33.3794 3.775C32.9461 3.775 32.5711 3.61667 32.2544 3.3C31.9544 2.98333 31.8044 2.61667 31.8044 2.2C31.8044 1.71667 31.9461 1.33333 32.2294 1.05C32.5127 0.766666 32.8961 0.625 33.3794 0.625C33.8127 0.625 34.1794 0.783333 34.4794 1.1C34.7961 1.4 34.9544 1.76667 34.9544 2.2C34.9544 2.66667 34.8127 3.05 34.5294 3.35C34.2461 3.63333 33.8627 3.775 33.3794 3.775ZM43.7044 19.3C41.8377 19.3 40.3544 18.7083 39.2544 17.525C38.1711 16.325 37.6294 14.65 37.6294 12.5C37.6294 11.2 37.8711 10.0417 38.3544 9.025C38.8544 7.99167 39.5461 7.18333 40.4294 6.6C41.3127 6 42.3377 5.7 43.5044 5.7C44.7544 5.7 45.7877 5.975 46.6044 6.525C47.4377 7.05833 48.0627 7.78333 48.4794 8.7C48.8961 9.61667 49.1044 10.625 49.1044 11.725C49.1044 12.3083 49.0794 12.875 49.0294 13.425H39.9294C40.0794 14.6417 40.5044 15.5917 41.2044 16.275C41.9044 16.9583 42.8294 17.3 43.9794 17.3C44.7294 17.3 45.4044 17.225 46.0044 17.075C46.6044 16.9083 47.1794 16.7 47.7294 16.45L48.2544 18.375C47.6544 18.6417 46.9794 18.8583 46.2294 19.025C45.4794 19.2083 44.6377 19.3 43.7044 19.3ZM39.9044 11.6H47.0294C47.0294 10.3333 46.7127 9.35833 46.0794 8.675C45.4461 7.99167 44.5711 7.65 43.4544 7.65C42.4877 7.65 41.6877 7.99167 41.0544 8.675C40.4211 9.34167 40.0377 10.3167 39.9044 11.6ZM56.053 19.3C55.2864 19.3 54.5947 19.1583 53.978 18.875C53.3614 18.575 52.8697 18.1 52.503 17.45C52.153 16.8 51.978 15.9583 51.978 14.925V0.5H54.228V14.7C54.228 15.6 54.4114 16.2667 54.778 16.7C55.1614 17.1333 55.6864 17.35 56.353 17.35C56.6697 17.35 56.978 17.3167 57.278 17.25C57.5947 17.1667 57.8614 17.075 58.078 16.975L58.628 18.8C58.328 18.9333 57.953 19.05 57.503 19.15C57.0697 19.25 56.5864 19.3 56.053 19.3ZM65.3044 19.3C64.2377 19.3 63.2627 19.025 62.3794 18.475C61.4961 17.925 60.7961 17.15 60.2794 16.15C59.7627 15.1333 59.5044 13.9417 59.5044 12.575C59.5044 11.2583 59.7627 10.0833 60.2794 9.05C60.8127 8.01667 61.5127 7.2 62.3794 6.6C63.2627 6 64.2294 5.7 65.2794 5.7C66.1461 5.7 66.8877 5.875 67.5044 6.225C68.1377 6.575 68.6294 6.93333 68.9794 7.3V0.5H71.2294V15.85C71.2294 16.4833 71.3794 16.9 71.6794 17.1C71.9961 17.2833 72.3377 17.375 72.7044 17.375L72.2294 19.125C70.6461 19.125 69.6794 18.4917 69.3294 17.225C68.9627 17.7417 68.4461 18.2167 67.7794 18.65C67.1294 19.0833 66.3044 19.3 65.3044 19.3ZM65.8044 17.3C66.4211 17.3 67.0044 17.1583 67.5544 16.875C68.1211 16.575 68.5961 16.1917 68.9794 15.725V9.275C68.6627 8.875 68.2211 8.50833 67.6544 8.175C67.0877 7.825 66.4627 7.65 65.7794 7.65C64.9794 7.65 64.2794 7.86667 63.6794 8.3C63.0794 8.73333 62.6127 9.31667 62.2794 10.05C61.9627 10.7667 61.8044 11.5833 61.8044 12.5C61.8044 13.4167 61.9794 14.2417 62.3294 14.975C62.6794 15.6917 63.1544 16.2583 63.7544 16.675C64.3711 17.0917 65.0544 17.3 65.8044 17.3ZM5.60596 49V33.6H0.230957V31.5H13.356V33.6H7.98096V49H5.60596ZM15.604 49V36H17.779V38.825C17.9957 38.275 18.2873 37.7667 18.654 37.3C19.0207 36.8167 19.479 36.4333 20.029 36.15C20.579 35.85 21.2207 35.7 21.954 35.7C22.204 35.7 22.454 35.7167 22.704 35.75C22.954 35.7667 23.1623 35.8 23.329 35.85L22.654 38.175C22.3373 38.0417 21.9623 37.975 21.529 37.975C20.9123 37.975 20.3207 38.15 19.754 38.5C19.204 38.85 18.7457 39.3917 18.379 40.125C18.029 40.8583 17.854 41.7917 17.854 42.925V49H15.604ZM29.8075 49.3C28.7242 49.3 27.7409 49.025 26.8575 48.475C25.9742 47.925 25.2659 47.15 24.7325 46.15C24.2159 45.1333 23.9575 43.9417 23.9575 42.575C23.9575 41.275 24.2159 40.1083 24.7325 39.075C25.2659 38.0417 25.9909 37.225 26.9075 36.625C27.8409 36.0083 28.9075 35.7 30.1075 35.7C30.8575 35.7 31.5325 35.8333 32.1325 36.1C32.7492 36.35 33.2825 36.6667 33.7325 37.05V36H35.7825V45.85C35.7825 46.4833 35.9325 46.9 36.2325 47.1C36.5492 47.2833 36.8909 47.375 37.2575 47.375L36.7825 49.125C35.1825 49.125 34.2159 48.475 33.8825 47.175C33.4992 47.7083 32.9742 48.2 32.3075 48.65C31.6575 49.0833 30.8242 49.3 29.8075 49.3ZM30.3075 47.3C30.9409 47.3 31.5409 47.15 32.1075 46.85C32.6742 46.5333 33.1492 46.1417 33.5325 45.675V38.7C33.0825 38.3833 32.5825 38.1333 32.0325 37.95C31.4992 37.75 30.9325 37.65 30.3325 37.65C29.5325 37.65 28.8242 37.8583 28.2075 38.275C27.6075 38.675 27.1325 39.2417 26.7825 39.975C26.4325 40.6917 26.2575 41.5333 26.2575 42.5C26.2575 43.4333 26.4325 44.2667 26.7825 45C27.1325 45.7167 27.6159 46.2833 28.2325 46.7C28.8492 47.1 29.5409 47.3 30.3075 47.3ZM44.9431 49.3C43.8764 49.3 42.9014 49.025 42.0181 48.475C41.1347 47.925 40.4347 47.15 39.9181 46.15C39.4014 45.1333 39.1431 43.9417 39.1431 42.575C39.1431 41.2583 39.4014 40.0833 39.9181 39.05C40.4514 38.0167 41.1514 37.2 42.0181 36.6C42.9014 36 43.8681 35.7 44.9181 35.7C45.7847 35.7 46.5264 35.875 47.1431 36.225C47.7764 36.575 48.2681 36.9333 48.6181 37.3V30.5H50.8681V45.85C50.8681 46.4833 51.0181 46.9 51.3181 47.1C51.6347 47.2833 51.9764 47.375 52.3431 47.375L51.8681 49.125C50.2847 49.125 49.3181 48.4917 48.9681 47.225C48.6014 47.7417 48.0847 48.2167 47.4181 48.65C46.7681 49.0833 45.9431 49.3 44.9431 49.3ZM45.4431 47.3C46.0597 47.3 46.6431 47.1583 47.1931 46.875C47.7597 46.575 48.2347 46.1917 48.6181 45.725V39.275C48.3014 38.875 47.8597 38.5083 47.2931 38.175C46.7264 37.825 46.1014 37.65 45.4181 37.65C44.6181 37.65 43.9181 37.8667 43.3181 38.3C42.7181 38.7333 42.2514 39.3167 41.9181 40.05C41.6014 40.7667 41.4431 41.5833 41.4431 42.5C41.4431 43.4167 41.6181 44.2417 41.9681 44.975C42.3181 45.6917 42.7931 46.2583 43.3931 46.675C44.0097 47.0917 44.6931 47.3 45.4431 47.3ZM55.3501 49V36H57.6001V49H55.3501ZM56.4751 33.775C56.0418 33.775 55.6668 33.6167 55.3501 33.3C55.0501 32.9833 54.9001 32.6167 54.9001 32.2C54.9001 31.7167 55.0418 31.3333 55.3251 31.05C55.6084 30.7667 55.9918 30.625 56.4751 30.625C56.9084 30.625 57.2751 30.7833 57.5751 31.1C57.8918 31.4 58.0501 31.7667 58.0501 32.2C58.0501 32.6667 57.9084 33.05 57.6251 33.35C57.3418 33.6333 56.9584 33.775 56.4751 33.775ZM61.6001 49V36H63.7751V38.175C64.2418 37.475 64.8334 36.8917 65.5501 36.425C66.2834 35.9417 67.1501 35.7 68.1501 35.7C69.6168 35.7 70.7084 36.1417 71.4251 37.025C72.1584 37.9083 72.5251 39.075 72.5251 40.525V49H70.2751V40.775C70.2751 39.8417 70.0501 39.0917 69.6001 38.525C69.1668 37.9583 68.5584 37.675 67.7751 37.675C67.0084 37.675 66.2834 37.95 65.6001 38.5C64.9168 39.0333 64.3334 39.6667 63.8501 40.4V49H61.6001ZM81.17 54.8C80.4034 54.8 79.6534 54.7083 78.92 54.525C78.2034 54.3417 77.5617 54.0667 76.995 53.7L77.82 51.75C78.22 52.0667 78.6867 52.325 79.22 52.525C79.7534 52.7417 80.4034 52.85 81.17 52.85C82.3534 52.85 83.2784 52.5333 83.945 51.9C84.6284 51.2833 84.97 50.2917 84.97 48.925V47.325C84.6367 47.725 84.1534 48.1083 83.52 48.475C82.9034 48.825 82.1617 49 81.295 49C80.3117 49 79.3784 48.75 78.495 48.25C77.6117 47.7333 76.895 46.9833 76.345 46C75.795 45.0167 75.52 43.8333 75.52 42.45C75.52 41.15 75.7867 39.9917 76.32 38.975C76.87 37.9583 77.6034 37.1583 78.52 36.575C79.4367 35.9917 80.445 35.7 81.545 35.7C82.2784 35.7 82.945 35.825 83.545 36.075C84.145 36.325 84.6617 36.6333 85.095 37V36H87.145V48.7C87.145 50.1333 86.895 51.3 86.395 52.2C85.895 53.1 85.195 53.7583 84.295 54.175C83.4117 54.5917 82.37 54.8 81.17 54.8ZM81.795 47C82.4617 47 83.0617 46.85 83.595 46.55C84.1284 46.25 84.5617 45.9 84.895 45.5V38.7C84.5284 38.4333 84.0867 38.1917 83.57 37.975C83.0534 37.7583 82.4534 37.65 81.77 37.65C81.0867 37.65 80.445 37.8333 79.845 38.2C79.245 38.5667 78.7534 39.1 78.37 39.8C78.0034 40.4833 77.82 41.325 77.82 42.325C77.82 43.275 78.0034 44.1 78.37 44.8C78.7534 45.5 79.245 46.0417 79.845 46.425C80.445 46.8083 81.095 47 81.795 47Z" fill="white"/>
<path d="M21.6136 19V12.35L15.5386 2.475L17.5386 1.275L22.8886 10.15L28.1386 1.375L30.0136 2.475L23.9886 12.35V19H21.6136ZM32.2544 19V6H34.5044V19H32.2544ZM33.3794 3.775C32.9461 3.775 32.5711 3.61667 32.2544 3.3C31.9544 2.98333 31.8044 2.61667 31.8044 2.2C31.8044 1.71667 31.9461 1.33333 32.2294 1.05C32.5127 0.766666 32.8961 0.625 33.3794 0.625C33.8127 0.625 34.1794 0.783333 34.4794 1.1C34.7961 1.4 34.9544 1.76667 34.9544 2.2C34.9544 2.66667 34.8127 3.05 34.5294 3.35C34.2461 3.63333 33.8627 3.775 33.3794 3.775ZM43.7044 19.3C41.8377 19.3 40.3544 18.7083 39.2544 17.525C38.1711 16.325 37.6294 14.65 37.6294 12.5C37.6294 11.2 37.8711 10.0417 38.3544 9.025C38.8544 7.99167 39.5461 7.18333 40.4294 6.6C41.3127 6 42.3377 5.7 43.5044 5.7C44.7544 5.7 45.7877 5.975 46.6044 6.525C47.4377 7.05833 48.0627 7.78333 48.4794 8.7C48.8961 9.61667 49.1044 10.625 49.1044 11.725C49.1044 12.3083 49.0794 12.875 49.0294 13.425H39.9294C40.0794 14.6417 40.5044 15.5917 41.2044 16.275C41.9044 16.9583 42.8294 17.3 43.9794 17.3C44.7294 17.3 45.4044 17.225 46.0044 17.075C46.6044 16.9083 47.1794 16.7 47.7294 16.45L48.2544 18.375C47.6544 18.6417 46.9794 18.8583 46.2294 19.025C45.4794 19.2083 44.6377 19.3 43.7044 19.3ZM39.9044 11.6H47.0294C47.0294 10.3333 46.7127 9.35833 46.0794 8.675C45.4461 7.99167 44.5711 7.65 43.4544 7.65C42.4877 7.65 41.6877 7.99167 41.0544 8.675C40.4211 9.34167 40.0377 10.3167 39.9044 11.6ZM56.053 19.3C55.2864 19.3 54.5947 19.1583 53.978 18.875C53.3614 18.575 52.8697 18.1 52.503 17.45C52.153 16.8 51.978 15.9583 51.978 14.925V0.5H54.228V14.7C54.228 15.6 54.4114 16.2667 54.778 16.7C55.1614 17.1333 55.6864 17.35 56.353 17.35C56.6697 17.35 56.978 17.3167 57.278 17.25C57.5947 17.1667 57.8614 17.075 58.078 16.975L58.628 18.8C58.328 18.9333 57.953 19.05 57.503 19.15C57.0697 19.25 56.5864 19.3 56.053 19.3ZM65.3044 19.3C64.2377 19.3 63.2627 19.025 62.3794 18.475C61.4961 17.925 60.7961 17.15 60.2794 16.15C59.7627 15.1333 59.5044 13.9417 59.5044 12.575C59.5044 11.2583 59.7627 10.0833 60.2794 9.05C60.8127 8.01667 61.5127 7.2 62.3794 6.6C63.2627 6 64.2294 5.7 65.2794 5.7C66.1461 5.7 66.8877 5.875 67.5044 6.225C68.1377 6.575 68.6294 6.93333 68.9794 7.3V0.5H71.2294V15.85C71.2294 16.4833 71.3794 16.9 71.6794 17.1C71.9961 17.2833 72.3377 17.375 72.7044 17.375L72.2294 19.125C70.6461 19.125 69.6794 18.4917 69.3294 17.225C68.9627 17.7417 68.4461 18.2167 67.7794 18.65C67.1294 19.0833 66.3044 19.3 65.3044 19.3ZM65.8044 17.3C66.4211 17.3 67.0044 17.1583 67.5544 16.875C68.1211 16.575 68.5961 16.1917 68.9794 15.725V9.275C68.6627 8.875 68.2211 8.50833 67.6544 8.175C67.0877 7.825 66.4627 7.65 65.7794 7.65C64.9794 7.65 64.2794 7.86667 63.6794 8.3C63.0794 8.73333 62.6127 9.31667 62.2794 10.05C61.9627 10.7667 61.8044 11.5833 61.8044 12.5C61.8044 13.4167 61.9794 14.2417 62.3294 14.975C62.6794 15.6917 63.1544 16.2583 63.7544 16.675C64.3711 17.0917 65.0544 17.3 65.8044 17.3ZM5.60596 49V33.6H0.230957V31.5H13.356V33.6H7.98096V49H5.60596ZM15.604 49V36H17.779V38.825C17.9957 38.275 18.2873 37.7667 18.654 37.3C19.0207 36.8167 19.479 36.4333 20.029 36.15C20.579 35.85 21.2207 35.7 21.954 35.7C22.204 35.7 22.454 35.7167 22.704 35.75C22.954 35.7667 23.1623 35.8 23.329 35.85L22.654 38.175C22.3373 38.0417 21.9623 37.975 21.529 37.975C20.9123 37.975 20.3207 38.15 19.754 38.5C19.204 38.85 18.7457 39.3917 18.379 40.125C18.029 40.8583 17.854 41.7917 17.854 42.925V49H15.604ZM29.8075 49.3C28.7242 49.3 27.7409 49.025 26.8575 48.475C25.9742 47.925 25.2659 47.15 24.7325 46.15C24.2159 45.1333 23.9575 43.9417 23.9575 42.575C23.9575 41.275 24.2159 40.1083 24.7325 39.075C25.2659 38.0417 25.9909 37.225 26.9075 36.625C27.8409 36.0083 28.9075 35.7 30.1075 35.7C30.8575 35.7 31.5325 35.8333 32.1325 36.1C32.7492 36.35 33.2825 36.6667 33.7325 37.05V36H35.7825V45.85C35.7825 46.4833 35.9325 46.9 36.2325 47.1C36.5492 47.2833 36.8909 47.375 37.2575 47.375L36.7825 49.125C35.1825 49.125 34.2159 48.475 33.8825 47.175C33.4992 47.7083 32.9742 48.2 32.3075 48.65C31.6575 49.0833 30.8242 49.3 29.8075 49.3ZM30.3075 47.3C30.9409 47.3 31.5409 47.15 32.1075 46.85C32.6742 46.5333 33.1492 46.1417 33.5325 45.675V38.7C33.0825 38.3833 32.5825 38.1333 32.0325 37.95C31.4992 37.75 30.9325 37.65 30.3325 37.65C29.5325 37.65 28.8242 37.8583 28.2075 38.275C27.6075 38.675 27.1325 39.2417 26.7825 39.975C26.4325 40.6917 26.2575 41.5333 26.2575 42.5C26.2575 43.4333 26.4325 44.2667 26.7825 45C27.1325 45.7167 27.6159 46.2833 28.2325 46.7C28.8492 47.1 29.5409 47.3 30.3075 47.3ZM44.9431 49.3C43.8764 49.3 42.9014 49.025 42.0181 48.475C41.1347 47.925 40.4347 47.15 39.9181 46.15C39.4014 45.1333 39.1431 43.9417 39.1431 42.575C39.1431 41.2583 39.4014 40.0833 39.9181 39.05C40.4514 38.0167 41.1514 37.2 42.0181 36.6C42.9014 36 43.8681 35.7 44.9181 35.7C45.7847 35.7 46.5264 35.875 47.1431 36.225C47.7764 36.575 48.2681 36.9333 48.6181 37.3V30.5H50.8681V45.85C50.8681 46.4833 51.0181 46.9 51.3181 47.1C51.6347 47.2833 51.9764 47.375 52.3431 47.375L51.8681 49.125C50.2847 49.125 49.3181 48.4917 48.9681 47.225C48.6014 47.7417 48.0847 48.2167 47.4181 48.65C46.7681 49.0833 45.9431 49.3 44.9431 49.3ZM45.4431 47.3C46.0597 47.3 46.6431 47.1583 47.1931 46.875C47.7597 46.575 48.2347 46.1917 48.6181 45.725V39.275C48.3014 38.875 47.8597 38.5083 47.2931 38.175C46.7264 37.825 46.1014 37.65 45.4181 37.65C44.6181 37.65 43.9181 37.8667 43.3181 38.3C42.7181 38.7333 42.2514 39.3167 41.9181 40.05C41.6014 40.7667 41.4431 41.5833 41.4431 42.5C41.4431 43.4167 41.6181 44.2417 41.9681 44.975C42.3181 45.6917 42.7931 46.2583 43.3931 46.675C44.0097 47.0917 44.6931 47.3 45.4431 47.3ZM55.3501 49V36H57.6001V49H55.3501ZM56.4751 33.775C56.0418 33.775 55.6668 33.6167 55.3501 33.3C55.0501 32.9833 54.9001 32.6167 54.9001 32.2C54.9001 31.7167 55.0418 31.3333 55.3251 31.05C55.6084 30.7667 55.9918 30.625 56.4751 30.625C56.9084 30.625 57.2751 30.7833 57.5751 31.1C57.8918 31.4 58.0501 31.7667 58.0501 32.2C58.0501 32.6667 57.9084 33.05 57.6251 33.35C57.3418 33.6333 56.9584 33.775 56.4751 33.775ZM61.6001 49V36H63.7751V38.175C64.2418 37.475 64.8334 36.8917 65.5501 36.425C66.2834 35.9417 67.1501 35.7 68.1501 35.7C69.6168 35.7 70.7084 36.1417 71.4251 37.025C72.1584 37.9083 72.5251 39.075 72.5251 40.525V49H70.2751V40.775C70.2751 39.8417 70.0501 39.0917 69.6001 38.525C69.1668 37.9583 68.5584 37.675 67.7751 37.675C67.0084 37.675 66.2834 37.95 65.6001 38.5C64.9168 39.0333 64.3334 39.6667 63.8501 40.4V49H61.6001ZM81.17 54.8C80.4034 54.8 79.6534 54.7083 78.92 54.525C78.2034 54.3417 77.5617 54.0667 76.995 53.7L77.82 51.75C78.22 52.0667 78.6867 52.325 79.22 52.525C79.7534 52.7417 80.4034 52.85 81.17 52.85C82.3534 52.85 83.2784 52.5333 83.945 51.9C84.6284 51.2833 84.97 50.2917 84.97 48.925V47.325C84.6367 47.725 84.1534 48.1083 83.52 48.475C82.9034 48.825 82.1617 49 81.295 49C80.3117 49 79.3784 48.75 78.495 48.25C77.6117 47.7333 76.895 46.9833 76.345 46C75.795 45.0167 75.52 43.8333 75.52 42.45C75.52 41.15 75.7867 39.9917 76.32 38.975C76.87 37.9583 77.6034 37.1583 78.52 36.575C79.4367 35.9917 80.445 35.7 81.545 35.7C82.2784 35.7 82.945 35.825 83.545 36.075C84.145 36.325 84.6617 36.6333 85.095 37V36H87.145V48.7C87.145 50.1333 86.895 51.3 86.395 52.2C85.895 53.1 85.195 53.7583 84.295 54.175C83.4117 54.5917 82.37 54.8 81.17 54.8ZM81.795 47C82.4617 47 83.0617 46.85 83.595 46.55C84.1284 46.25 84.5617 45.9 84.895 45.5V38.7C84.5284 38.4333 84.0867 38.1917 83.57 37.975C83.0534 37.7583 82.4534 37.65 81.77 37.65C81.0867 37.65 80.445 37.8333 79.845 38.2C79.245 38.5667 78.7534 39.1 78.37 39.8C78.0034 40.4833 77.82 41.325 77.82 42.325C77.82 43.275 78.0034 44.1 78.37 44.8C78.7534 45.5 79.245 46.0417 79.845 46.425C80.445 46.8083 81.095 47 81.795 47Z" fill="url(#paint0_linear_0_1078)"/>
<defs>
<linearGradient id="paint0_linear_0_1078" x1="44.5" y1="-4" x2="44.5" y2="56" gradientUnits="userSpaceOnUse">
<stop stop-color="#001A38"/>
<stop offset="0.9999" stop-color="#001A38" stop-opacity="0"/>
</linearGradient>
</defs>
</svg>
